<svg xmlns="http://www.w3.org/2000/svg" xmlns:xlink="http://www.w3.org/1999/xlink" width="500" zoomAndPan="magnify" viewBox="0 0 375 374.999991" height="500" preserveAspectRatio="xMidYMid meet" version="1.0"><defs><g/><clipPath id="1e6d99a667"><path d="M 23.785156 23.785156 L 351.214844 23.785156 L 351.214844 351.214844 L 23.785156 351.214844 Z M 23.785156 23.785156 " clip-rule="nonzero"/></clipPath><clipPath id="19820ccaac"><path d="M 187.5 23.785156 C 97.082031 23.785156 23.785156 97.082031 23.785156 187.5 C 23.785156 277.917969 97.082031 351.214844 187.5 351.214844 C 277.917969 351.214844 351.214844 277.917969 351.214844 187.5 C 351.214844 97.082031 277.917969 23.785156 187.5 23.785156 Z M 187.5 23.785156 " clip-rule="nonzero"/></clipPath><clipPath id="04d6335f59"><path d="M 0.785156 0.785156 L 328.214844 0.785156 L 328.214844 328.214844 L 0.785156 328.214844 Z M 0.785156 0.785156 " clip-rule="nonzero"/></clipPath><clipPath id="4ee18e384e"><path d="M 164.5 0.785156 C 74.082031 0.785156 0.785156 74.082031 0.785156 164.5 C 0.785156 254.917969 74.082031 328.214844 164.5 328.214844 C 254.917969 328.214844 328.214844 254.917969 328.214844 164.5 C 328.214844 74.082031 254.917969 0.785156 164.5 0.785156 Z M 164.5 0.785156 " clip-rule="nonzero"/></clipPath><clipPath id="e0adf97d0a"><rect x="0" width="329" y="0" height="329"/></clipPath></defs><g clip-path="url(#1e6d99a667)"><g clip-path="url(#19820ccaac)"><g transform="matrix(1, 0, 0, 1, 23, 23)"><g clip-path="url(#e0adf97d0a)"><g clip-path="url(#04d6335f59)"><g clip-path="url(#4ee18e384e)"><path fill="#ffb300" d="M 0.785156 0.785156 L 328.214844 0.785156 L 328.214844 328.214844 L 0.785156 328.214844 Z M 0.785156 0.785156 " fill-opacity="1" fill-rule="nonzero"/></g></g></g></g></g></g><g fill="#ffffff" fill-opacity="1"><g transform="translate(75.6, 295.618017)"><g><path d="M 120.59375 6.75 C 100.195312 6.75 81.671875 2.328125 65.015625 -6.515625 C 48.367188 -15.367188 35.171875 -28.269531 25.421875 -45.21875 C 15.671875 -62.175781 10.796875 -82.953125 10.796875 -107.546875 C 10.796875 -131.847656 16.117188 -152.625 26.765625 -169.875 C 37.421875 -187.125 51.671875 -200.320312 69.515625 -209.46875 C 87.367188 -218.625 106.945312 -223.203125 128.25 -223.203125 C 145.644531 -223.203125 160.34375 -220.347656 172.34375 -214.640625 C 184.34375 -208.941406 193.492188 -201.519531 199.796875 -192.375 C 206.097656 -183.226562 209.25 -173.703125 209.25 -163.796875 C 209.25 -155.398438 206.695312 -148.875 201.59375 -144.21875 C 196.5 -139.570312 189.898438 -137.25 181.796875 -137.25 C 173.097656 -137.25 166.046875 -140.398438 160.640625 -146.703125 C 155.242188 -153.003906 152.097656 -161.253906 151.203125 -171.453125 C 150.898438 -178.046875 151.046875 -183.664062 151.640625 -188.3125 C 152.242188 -192.96875 152.25 -197.695312 151.65625 -202.5 C 150.445312 -207.601562 148.566406 -210.976562 146.015625 -212.625 C 143.472656 -214.269531 139.953125 -215.09375 135.453125 -215.09375 C 117.148438 -215.09375 102.972656 -207.144531 92.921875 -191.25 C 82.867188 -175.351562 77.84375 -150.003906 77.84375 -115.203125 C 77.84375 -84.898438 83.46875 -61.722656 94.71875 -45.671875 C 105.96875 -29.617188 123.296875 -21.59375 146.703125 -21.59375 C 160.796875 -21.59375 172.191406 -24.144531 180.890625 -29.25 C 189.597656 -34.351562 198 -42.003906 206.09375 -52.203125 L 210.59375 -48.59375 C 203.09375 -30.894531 191.539062 -17.242188 175.9375 -7.640625 C 160.34375 1.953125 141.894531 6.75 120.59375 6.75 Z M 120.59375 6.75 "/></g></g></g></svg>